<svg xmlns="http://www.w3.org/2000/svg" viewBox="0 0 800 520" role="img" aria-labelledby="title desc">
<title id="title">Sharing radio resources</title><desc id="desc">Two ways to share a single frequency channel</desc>
<defs><marker id="arrow" markerWidth="7" markerHeight="7" refX="6" refY="3.5" orient="auto"><path d="M0 0L7 3.5L0 7Z" fill="#257664"/></marker></defs>
<style>text{font-family:Arial,sans-serif;fill:#183841;font-size:18px}path{fill:none;stroke:#183841;stroke-width:2}circle{fill:#fff;stroke:#183841;stroke-width:2}.muted{fill:#536c70;font-size:16px}.signal{stroke:#257664;stroke-width:3}.accent{fill:#257664}.head{font-size:27px;font-weight:700}.small{font-size:15px}</style>
<rect x="0" y="0" width="800" height="520" fill="#f3f6f3"/><rect x="32" y="32" width="4" height="60" fill="#257664"/>
<text x="52" y="58" class="head">Sharing radio resources</text><text x="52" y="88" class="muted">Two ways to share a single frequency channel</text>
<text x="744" y="57" text-anchor="end" class="muted">03</text>
<text x="210" y="145" text-anchor="middle" font-weight="700">Separate resources</text><text x="592" y="145" text-anchor="middle" font-weight="700">Shared resource</text><rect x="50" y="180" width="320" height="130" rx="6" fill="#fff" stroke="#ccdad3"/><rect x="430" y="180" width="320" height="130" rx="6" fill="#fff" stroke="#ccdad3"/><rect x="62" y="192" width="68" height="106" rx="3" fill="#257664"/><rect x="139" y="192" width="68" height="106" rx="3" fill="#b77538"/><rect x="216" y="192" width="68" height="106" rx="3" fill="#257664"/><rect x="293" y="192" width="68" height="106" rx="3" fill="#b77538"/><rect x="442" y="192" width="296" height="66" rx="3" fill="#257664"/><rect x="442" y="262" width="296" height="36" rx="3" fill="#b77538"/><path d="M50 326L369 326" class="signal" marker-end="url(#arrow)"/><path d="M430 326L748 326" class="signal" marker-end="url(#arrow)"/><text x="210" y="351" text-anchor="middle" class="small">Time</text><text x="592" y="351" text-anchor="middle" class="small">Time</text><text x="210" y="383" text-anchor="middle" class="small">Users take turns transmitting</text><text x="592" y="383" text-anchor="middle" class="small">Signals are separated at the receiver</text><rect x="195" y="411" width="12" height="12" fill="#257664"/><text x="217" y="422" class="small">User A</text><rect x="438" y="411" width="12" height="12" fill="#b77538"/><text x="460" y="422" class="small">User B</text>
<path d="M40 449L760 449" style="stroke:#ccd9d3"/><text x="40" y="483" class="small">TDMA — time division · PD-NOMA — power-domain access</text>
</svg>
