<svg xmlns="http://www.w3.org/2000/svg" viewBox="0 0 800 520" role="img" aria-labelledby="title desc">
<title id="title">Inside a polar encoder</title><desc id="desc">An example encoding transform for four bits</desc>
<defs><marker id="arrow" markerWidth="7" markerHeight="7" refX="6" refY="3.5" orient="auto"><path d="M0 0L7 3.5L0 7Z" fill="#257664"/></marker></defs>
<style>text{font-family:Arial,sans-serif;fill:#183841;font-size:18px}path{fill:none;stroke:#183841;stroke-width:2}circle{fill:#fff;stroke:#183841;stroke-width:2}.muted{fill:#536c70;font-size:16px}.signal{stroke:#257664;stroke-width:3}.accent{fill:#257664}.head{font-size:27px;font-weight:700}.small{font-size:15px}</style>
<rect x="0" y="0" width="800" height="520" fill="#f3f6f3"/><rect x="32" y="32" width="4" height="60" fill="#257664"/>
<text x="52" y="58" class="head">Inside a polar encoder</text><text x="52" y="88" class="muted">An example encoding transform for four bits</text>
<text x="744" y="57" text-anchor="end" class="muted">02</text>
<text x="112" y="138" text-anchor="middle" class="muted">Input bits</text><text x="680" y="138" text-anchor="middle" class="muted">Codeword bits</text><path d="M126 187L660 187" /><text x="79" y="193" >u₀</text><text x="683" y="193" >x₀</text><path d="M126 249L660 249" /><text x="79" y="255" >u₁</text><text x="683" y="255" >x₁</text><path d="M126 311L660 311" /><text x="79" y="317" >u₂</text><text x="683" y="317" >x₂</text><path d="M126 373L660 373" /><text x="79" y="379" >u₃</text><text x="683" y="379" >x₃</text><path d="M217 311L300 187" class="signal"/><circle cx="217" cy="311" r="4" style="fill:#257664;stroke:#257664"/><circle cx="300" cy="187" r="12" /><path d="M293 187L307 187" /><path d="M300 180L300 194" /><path d="M217 373L300 249" class="signal"/><circle cx="217" cy="373" r="4" style="fill:#257664;stroke:#257664"/><circle cx="300" cy="249" r="12" /><path d="M293 249L307 249" /><path d="M300 242L300 256" /><path d="M447 249L530 187" class="signal"/><circle cx="447" cy="249" r="4" style="fill:#257664;stroke:#257664"/><circle cx="530" cy="187" r="12" /><path d="M523 187L537 187" /><path d="M530 180L530 194" /><path d="M447 373L530 311" class="signal"/><circle cx="447" cy="373" r="4" style="fill:#257664;stroke:#257664"/><circle cx="530" cy="311" r="12" /><path d="M523 311L537 311" /><path d="M530 304L530 318" />
<path d="M40 449L760 449" style="stroke:#ccd9d3"/><text x="40" y="483" class="small">⊕ — addition modulo 2</text>
</svg>
